# xmcd CD database file
# Copyright (C) 1993-1998 Ti Kan
#
# Track frame offsets:
#	150
#	14278
#	32336
#	44373
#	61713
#	78217
#	96445
#	111561
#	124929
#	142882
#	156826
#	171266
#	188634
#	207868
#
# Disc length: 2978 seconds
#
# Revision: 9
# Processed by: cddbd v1.4b41PL1 Copyright (c) Steve Scherf et al.
# Submitted via: NotifyCDPlayer(CDDB) 1.51.3
#
DISCID=b40ba00e
DTITLE=Nigel Stonier - Golden Coins for the Holy Kid
DYEAR=1900
DGENRE=
TTITLE0=Mrs Oblivion
TTITLE1=Waiting for the Tenement King
TTITLE2=Recover the lover
TTITLE3=Rainbow under your wheels
TTITLE4=Hard times in heaven
TTITLE5=Expecting Rosalind
TTITLE6=The neutral
TTITLE7=Two bad drivers
TTITLE8=Last year's tears
TTITLE9=Katy's depression
TTITLE10=She speaks the truth
TTITLE11=Pandora's other box
TTITLE12=Oceans
TTITLE13=Chance
EXTD=
EXTT0=
EXTT1=
EXTT2=
EXTT3=
EXTT4=
EXTT5=
EXTT6=
EXTT7=
EXTT8=
EXTT9=
EXTT10=
EXTT11=
EXTT12=
EXTT13=
PLAYORDER=
